<?xml version="1.0" standalone="no"?>
<!DOCTYPE svg PUBLIC "-//W3C//DTD SVG 20010904//EN"
 "http://www.w3.org/TR/2001/REC-SVG-20010904/DTD/svg10.dtd">
<svg version="1.0" xmlns="http://www.w3.org/2000/svg"
 width="512.000000pt" height="512.000000pt" viewBox="0 0 512.000000 512.000000"
 preserveAspectRatio="xMidYMid meet">
<metadata>
Created by potrace 1.16, written by Peter Selinger 2001-2019
</metadata>
<g transform="translate(0.000000,512.000000) scale(0.100000,-0.100000)"
fill="#000000" stroke="none">
<path d="M2272 4835 c-30 -7 -91 -31 -138 -54 -148 -74 -262 -207 -320 -376
-24 -69 -28 -96 -28 -195 l-1 -116 -50 14 c-73 19 -246 18 -325 -3 -155 -40
-311 -156 -392 -290 -73 -120 -110 -287 -94 -417 7 -53 10 -58 64 -101 100
-78 224 -127 321 -127 86 0 135 -42 116 -99 -12 -39 -52 -50 -140 -40 -124 14
-235 54 -334 122 l-44 30 -56 -29 c-69 -36 -178 -137 -226 -210 -61 -91 -96
-203 -102 -319 -6 -128 13 -222 68 -335 70 -143 226 -279 366 -321 24 -7 43
-15 43 -18 0 -4 -13 -38 -29 -76 -74 -175 -67 -368 20 -545 33 -67 60 -102
123 -165 132 -131 252 -184 438 -192 l118 -6 29 66 c83 184 234 327 415 393
l58 21 -44 50 c-54 61 -109 151 -133 218 -10 28 -21 54 -25 58 -4 5 -27 -5
-52 -22 -60 -40 -132 -71 -185 -78 -37 -5 -48 -2 -68 17 -50 47 -23 100 63
125 76 22 129 54 178 107 78 85 118 206 107 324 -5 43 -2 55 16 73 26 26 75
27 100 2 46 -46 33 -240 -23 -349 -20 -39 -20 -68 0 -146 62 -240 260 -404
519 -431 78 -8 115 -31 115 -72 0 -36 -43 -73 -82 -73 -59 1 -181 27 -253 55
-81 31 -137 29 -241 -9 -175 -64 -296 -189 -354 -368 l-22 -67 22 -73 c34
-114 77 -185 165 -274 64 -64 97 -90 165 -123 378 -185 815 8 936 415 16 54
18 133 21 942 l4 882 -59 0 c-78 0 -199 32 -275 72 -77 41 -174 135 -216 210
l-33 58 -30 -16 c-64 -33 -145 -55 -223 -61 -69 -5 -83 -3 -102 13 -61 52 -24
124 64 124 107 0 216 44 295 118 77 72 118 154 133 265 8 57 33 87 74 87 46 0
73 -41 66 -99 -12 -90 -49 -185 -102 -264 -29 -43 -53 -83 -53 -90 0 -26 60
-115 109 -160 28 -27 76 -60 106 -73 62 -29 164 -47 213 -38 l33 6 -4 762 c-3
695 -5 766 -21 821 -53 180 -182 338 -336 413 -47 23 -112 49 -145 57 -72 18
-248 19 -323 0z"/>
<path d="M3655 4641 c-87 -23 -167 -88 -207 -170 -32 -64 -32 -185 -1 -252 27
-59 86 -119 146 -148 l47 -23 0 -54 c0 -64 -17 -109 -54 -144 -27 -24 -33 -25
-187 -28 l-159 -3 0 -80 0 -81 178 4 c161 3 181 5 219 26 104 55 153 139 161
272 l5 88 42 16 c62 24 120 79 152 144 37 75 40 191 6 263 -27 60 -86 119
-147 147 -52 25 -152 36 -201 23z"/>
<path d="M4231 3940 c-89 -19 -173 -88 -212 -175 -32 -70 -32 -182 -2 -245 35
-70 79 -116 138 -146 l55 -26 0 -59 c0 -76 -20 -123 -62 -149 -32 -19 -49 -20
-470 -20 l-438 0 0 -80 0 -81 468 3 467 3 46 27 c97 57 140 135 147 263 l4 90
55 24 c225 100 232 433 10 540 -69 34 -140 44 -206 31z"/>
<path d="M4188 2645 c-63 -20 -151 -102 -174 -160 l-17 -45 -378 0 -379 0 0
-80 0 -80 378 0 379 0 12 -39 c16 -56 90 -134 153 -162 41 -18 70 -23 128 -23
126 0 214 55 270 166 54 110 38 243 -42 333 -79 90 -215 127 -330 90z"/>
<path d="M3240 1681 l0 -80 439 -3 c426 -3 440 -4 468 -24 42 -31 63 -80 63
-150 l0 -61 -57 -29 c-140 -71 -199 -255 -129 -398 109 -222 434 -225 548 -3
30 59 36 168 13 238 -23 69 -112 161 -172 179 l-41 12 -4 92 c-3 73 -9 101
-30 141 -33 63 -79 108 -143 137 -49 23 -55 23 -502 26 l-453 3 0 -80z"/>
<path d="M3240 1170 l0 -80 94 0 c79 0 97 -3 120 -21 41 -32 56 -71 56 -143 0
-65 0 -66 -34 -80 -53 -22 -126 -95 -152 -151 -19 -39 -24 -67 -24 -127 0 -67
4 -84 33 -139 54 -105 147 -161 267 -161 121 0 213 55 268 162 32 62 34 69 30
150 -3 61 -10 97 -26 126 -28 54 -114 131 -163 145 l-39 12 0 77 c0 97 -20
156 -73 216 -64 73 -119 94 -249 94 l-108 0 0 -80z"/>
</g>
</svg>
