<?xml version="1.0" standalone="no"?>
<!DOCTYPE svg PUBLIC "-//W3C//DTD SVG 20010904//EN"
 "http://www.w3.org/TR/2001/REC-SVG-20010904/DTD/svg10.dtd">
<svg version="1.0" xmlns="http://www.w3.org/2000/svg"
 width="512.000000pt" height="512.000000pt" viewBox="0 0 512.000000 512.000000"
 preserveAspectRatio="xMidYMid meet">
<metadata>
Created by potrace 1.16, written by Peter Selinger 2001-2019
</metadata>
<g transform="translate(0.000000,512.000000) scale(0.100000,-0.100000)"
fill="#000000" stroke="none">
<path d="M1833 4460 c-18 -10 -39 -31 -49 -45 -11 -17 -110 -374 -114 -412 0
-2 401 -3 890 -3 490 0 890 1 890 3 -4 38 -103 395 -114 412 -10 14 -31 35
-49 45 -31 19 -56 20 -727 20 -671 0 -696 -1 -727 -20z"/>
<path d="M488 3821 c-145 -47 -269 -174 -312 -320 -14 -49 -16 -189 -16 -1262
0 -1157 1 -1210 19 -1268 46 -147 172 -272 320 -315 49 -14 259 -16 2062 -16
1942 0 2009 1 2068 19 147 46 272 172 315 320 14 49 16 189 16 1261 0 1072 -2
1212 -16 1261 -43 148 -168 274 -315 320 -59 18 -125 19 -2072 18 -1923 0
-2015 -1 -2069 -18z m2192 -475 c41 -3 117 -17 169 -31 379 -102 681 -405 789
-792 25 -90 27 -112 27 -283 0 -171 -2 -193 -27 -283 -108 -387 -412 -691
-791 -792 -592 -158 -1198 194 -1365 792 -25 90 -27 112 -27 283 0 171 2 193
27 283 109 389 411 691 795 793 91 25 246 44 303 38 14 -2 59 -5 100 -8z
m-1642 -176 c130 -79 74 -280 -78 -280 -27 0 -58 8 -78 20 -130 79 -74 280 78
280 27 0 58 -8 78 -20z"/>
<path d="M2360 3020 c-222 -58 -415 -213 -515 -415 -63 -126 -85 -221 -85
-365 0 -146 22 -240 87 -370 40 -81 62 -109 148 -195 86 -86 114 -108 195
-148 130 -65 224 -87 370 -87 146 0 240 22 370 87 81 40 109 62 195 148 86 86
108 114 148 195 65 130 87 224 87 370 0 145 -22 238 -86 370 -41 82 -61 109
-148 196 -87 87 -114 107 -196 148 -134 65 -225 86 -374 85 -86 0 -143 -6
-196 -19z m428 -190 c233 -90 402 -328 402 -566 0 -111 -55 -174 -151 -174
-87 0 -143 60 -155 165 -21 182 -127 288 -309 309 -32 4 -73 15 -90 24 -121
71 -90 253 47 281 54 11 174 -7 256 -39z"/>
</g>
</svg>
